<?xml version="1.0" standalone="no"?>
<!DOCTYPE svg PUBLIC "-//W3C//DTD SVG 20010904//EN"
 "http://www.w3.org/TR/2001/REC-SVG-20010904/DTD/svg10.dtd">
<svg version="1.0" xmlns="http://www.w3.org/2000/svg"
 width="441.000000pt" height="441.000000pt" viewBox="0 0 441.000000 441.000000"
 preserveAspectRatio="xMidYMid meet">
<metadata>
Created by potrace 1.11, written by Peter Selinger 2001-2013
</metadata>
<g transform="translate(0.000000,441.000000) scale(0.100000,-0.100000)"
fill="#000000" stroke="none">
<path d="M291 3840 l0 -119 132 -4 132 -3 -132 -2 -132 -2 0 -120 0 -120 132
0 c73 0 662 0 1310 0 l1177 0 -2 -123 c-1 -67 -3 -96 -5 -64 l-4 57 -64 0 -65
0 0 -60 0 -60 70 0 70 0 -2 -122 -2 -123 -3 118 -4 117 -64 0 -64 0 -4 -117
-3 -118 -2 118 -2 117 -65 0 -65 0 0 -62 0 -63 -67 0 -68 0 -3 -57 -3 -57 133
-4 c109 -2 97 -3 -64 -5 l-198 -2 -2 -117 c-1 -65 -3 -92 -5 -60 l-4 57 -64 0
-65 0 0 -60 0 -60 70 0 70 0 -2 -122 -2 -123 -3 118 -4 117 -64 0 -64 0 -4
-117 -3 -118 -2 118 -2 117 -65 0 -65 0 0 -62 0 -63 -67 0 -68 0 -3 -57 -3
-57 133 -4 c109 -2 97 -3 -64 -5 l-198 -2 -2 -117 c-1 -65 -3 -92 -5 -60 l-4
57 -64 0 -65 0 0 -60 0 -60 70 0 70 0 -2 -122 -2 -123 -3 118 -4 117 -64 0
-64 0 -4 -117 -3 -118 -2 118 -2 117 -65 0 -65 0 0 -62 0 -63 -67 0 -68 0 -3
-57 -3 -57 133 -4 c109 -2 97 -3 -64 -5 l-198 -2 -2 -117 c-1 -65 -3 -92 -5
-60 l-4 57 -64 0 -65 0 0 -60 0 -60 70 0 70 0 -2 -122 -2 -123 -3 118 -4 117
-64 0 -64 0 -4 -117 -3 -118 -2 118 -2 117 -65 0 -65 0 0 -62 0 -63 -67 0 -68
0 -3 -57 -3 -57 133 -4 c109 -2 97 -3 -64 -5 l-198 -2 -2 -117 c-1 -65 -3 -92
-5 -60 l-4 57 -64 0 -65 0 0 -60 0 -60 70 0 70 0 -2 -122 -2 -123 -3 118 -4
117 -64 0 -64 0 -4 -117 -3 -118 -2 118 -2 117 -65 0 -65 0 0 -62 0 -63 -67 0
-68 0 -3 -57 -3 -57 133 -4 133 -3 -132 -2 -132 -2 0 -120 0 -119 132 -4 132
-3 -132 -2 -132 -2 0 -120 0 -120 129 0 c72 0 911 0 1865 0 954 0 1762 0 1795
0 l60 0 0 120 0 119 -62 4 -63 3 63 2 62 2 0 120 0 120 -65 0 -64 0 -4 -117
-3 -118 -2 118 -2 117 -65 0 -64 0 -4 -118 -3 -117 -2 118 -2 117 -200 0 -199
0 -4 -118 -3 -117 -2 118 -2 117 -65 0 -64 0 -4 -117 -3 -118 -2 118 -2 117
-200 0 -199 0 -4 -117 -3 -118 -2 118 -2 117 -65 0 -64 0 -4 -117 -3 -118 -2
118 -2 117 -200 0 -199 0 -4 -117 -3 -118 -2 118 -2 117 -65 0 -64 0 -4 -118
-3 -117 -2 118 -2 117 -200 0 -199 0 -4 -117 -3 -118 -2 118 -2 117 -65 0 -64
0 -4 -118 -3 -117 -2 118 -2 117 -200 0 -199 0 -4 -117 -3 -118 -2 118 -2 117
-65 0 -64 0 -3 -117 c-2 -65 -4 -6 -6 130 l-2 248 78 -1 c42 -1 105 -1 140 -1
l62 1 0 60 0 60 70 0 70 0 0 60 0 59 -132 4 c-100 2 -84 3 66 4 l198 1 -1 127
-2 126 78 -1 c43 -1 106 -1 141 -1 l62 1 0 60 0 60 70 0 70 0 0 60 0 59 -132
4 c-100 2 -84 3 66 4 l198 1 -1 127 -2 126 78 -1 c43 -1 106 -1 141 -1 l62 1
0 60 0 60 70 0 70 0 0 60 0 59 -133 4 c-99 2 -83 3 67 4 l198 1 -1 127 -2 126
78 -1 c43 -1 106 -1 141 -1 l62 1 0 60 0 60 70 0 70 0 0 60 0 59 -132 4 c-100
2 -84 3 66 4 l198 1 -1 127 -2 126 78 -1 c43 -1 106 -1 141 -1 l62 1 0 60 0
60 70 0 70 0 0 60 0 59 -132 4 c-100 2 -84 3 66 4 l198 1 -1 126 -2 126 70 0
71 0 0 120 0 120 -65 0 -64 0 -4 -117 -3 -118 -2 118 -2 117 -200 0 -199 0 -4
-117 -3 -118 -2 118 -2 117 -65 0 -64 0 -4 -117 -3 -118 -2 118 -2 117 -200 0
-199 0 -4 -117 -3 -118 -2 118 -2 117 -65 0 -64 0 -4 -117 -3 -118 -2 118 -2
117 -200 0 -199 0 -4 -117 -3 -118 -2 118 -2 117 -65 0 -64 0 -4 -117 -3 -118
-2 118 -2 117 -200 0 -199 0 -4 -117 -3 -118 -2 118 -2 117 -65 0 -64 0 -4
-117 -3 -118 -2 118 -2 117 -200 0 -199 0 -4 -117 -3 -118 -2 118 -2 117 -65
0 -64 0 -4 -117 -3 -118 -2 118 -2 117 -200 0 -199 0 -4 -117 -3 -118 -2 118
-2 117 -65 0 -64 0 -4 -117 -3 -118 -2 118 -2 117 -135 0 -134 0 0 -120z m417
-242 l-2 -123 -3 118 -4 117 -64 0 -64 0 -4 -117 -3 -118 -2 123 -2 122 75 0
75 0 -2 -122z m300 115 c-54 -2 -142 -2 -195 0 -54 1 -10 3 97 3 107 0 151 -2
98 -3z m250 -115 l-2 -123 -3 118 -4 117 -64 0 -64 0 -4 -117 -3 -118 -2 123
-2 122 75 0 75 0 -2 -122z m300 115 c-54 -2 -142 -2 -195 0 -54 1 -10 3 97 3
107 0 151 -2 98 -3z m250 -115 l-2 -123 -3 118 -4 117 -64 0 -64 0 -4 -117 -3
-118 -2 123 -2 122 75 0 75 0 -2 -122z m300 115 c-54 -2 -142 -2 -195 0 -54 1
-10 3 97 3 107 0 151 -2 98 -3z m250 -115 l-2 -123 -3 118 -4 117 -64 0 -64 0
-4 -117 -3 -118 -2 123 -2 122 75 0 75 0 -2 -122z m300 115 c-54 -2 -142 -2
-195 0 -54 1 -10 3 97 3 107 0 151 -2 98 -3z m250 -115 l-2 -123 -3 118 -4
117 -64 0 -64 0 -4 -117 -3 -118 -2 123 -2 122 75 0 75 0 -2 -122z m300 115
c-54 -2 -142 -2 -195 0 -54 1 -10 3 97 3 107 0 151 -2 98 -3z m250 -115 l-2
-123 -3 118 -4 117 -64 0 -64 0 -4 -117 -3 -118 -2 123 -2 122 75 0 75 0 -2
-122z m300 115 c-54 -2 -142 -2 -195 0 -54 1 -10 3 97 3 107 0 151 -2 98 -3z
m-550 -250 c-54 -2 -142 -2 -195 0 -54 1 -10 3 97 3 107 0 151 -2 98 -3z m250
-115 l-2 -123 -3 118 -4 117 -64 0 -64 0 -4 -117 -3 -118 -2 123 -2 122 75 0
75 0 -2 -122z m-250 -135 c-54 -2 -142 -2 -195 0 -54 1 -10 3 97 3 107 0 151
-2 98 -3z m-300 -365 l-2 -123 -3 118 -4 117 -64 0 -64 0 -4 -117 -3 -118 -2
123 -2 122 75 0 75 0 -2 -122z m-250 -135 c-54 -2 -142 -2 -195 0 -54 1 -10 3
97 3 107 0 151 -2 98 -3z m-300 -365 l-2 -123 -3 118 -4 117 -64 0 -64 0 -4
-117 -3 -118 -2 123 -2 122 75 0 75 0 -2 -122z m-250 -135 c-54 -2 -142 -2
-195 0 -54 1 -10 3 97 3 107 0 151 -2 98 -3z m-300 -365 l-2 -123 -3 118 -4
117 -64 0 -64 0 -4 -117 -3 -118 -2 123 -2 122 75 0 75 0 -2 -122z m-250 -135
c-54 -2 -142 -2 -195 0 -54 1 -10 3 97 3 107 0 151 -2 98 -3z m-300 -365 l-2
-123 -3 118 -4 117 -64 0 -64 0 -4 -117 -3 -118 -2 123 -2 122 75 0 75 0 -2
-122z m-250 -135 c-54 -2 -142 -2 -195 0 -54 1 -10 3 97 3 107 0 151 -2 98 -3z
m-300 -365 l-2 -123 -3 118 -4 117 -64 0 -64 0 -4 -117 -3 -118 -2 123 -2 122
75 0 75 0 -2 -122z m300 115 c-54 -2 -142 -2 -195 0 -54 1 -10 3 97 3 107 0
151 -2 98 -3z m-300 -365 l-2 -123 -3 118 -4 117 -64 0 -64 0 -4 -117 -3 -118
-2 123 -2 122 75 0 75 0 -2 -122z m300 115 c-54 -2 -142 -2 -195 0 -54 1 -10
3 97 3 107 0 151 -2 98 -3z m250 -115 l-2 -123 -3 118 -4 117 -64 0 -64 0 -4
-117 -3 -118 -2 123 -2 122 75 0 75 0 -2 -122z m300 115 c-54 -2 -142 -2 -195
0 -54 1 -10 3 97 3 107 0 151 -2 98 -3z m250 -115 l-2 -123 -3 118 -4 117 -64
0 -64 0 -4 -117 -3 -118 -2 123 -2 122 75 0 75 0 -2 -122z m300 115 c-54 -2
-142 -2 -195 0 -54 1 -10 3 97 3 107 0 151 -2 98 -3z m250 -115 l-2 -123 -3
118 -4 117 -64 0 -64 0 -4 -117 -3 -118 -2 123 -2 122 75 0 75 0 -2 -122z
m300 115 c-54 -2 -142 -2 -195 0 -54 1 -10 3 97 3 107 0 151 -2 98 -3z m250
-115 l-2 -123 -3 118 -4 117 -64 0 -64 0 -4 -117 -3 -118 -2 123 -2 122 75 0
75 0 -2 -122z m300 115 c-54 -2 -142 -2 -195 0 -54 1 -10 3 97 3 107 0 151 -2
98 -3z m250 -115 l-2 -123 -3 118 -4 117 -64 0 -64 0 -4 -117 -3 -118 -2 123
-2 122 75 0 75 0 -2 -122z m300 115 c-54 -2 -142 -2 -195 0 -54 1 -10 3 97 3
107 0 151 -2 98 -3z m250 -115 l-2 -123 -3 118 -4 117 -64 0 -64 0 -4 -117 -3
-118 -2 123 -2 122 75 0 75 0 -2 -122z"/>
<path d="M3870 3650 l0 -60 65 0 65 0 0 60 0 60 -65 0 -65 0 0 -60z"/>
<path d="M3320 3150 l0 -60 65 0 65 0 0 60 0 60 -65 0 -65 0 0 -60z"/>
<path d="M2770 2650 l0 -60 65 0 65 0 0 60 0 60 -65 0 -65 0 0 -60z"/>
<path d="M2220 2150 l0 -60 65 0 65 0 0 60 0 60 -65 0 -65 0 0 -60z"/>
<path d="M1670 1650 l0 -60 65 0 65 0 0 60 0 60 -65 0 -65 0 0 -60z"/>
<path d="M1120 1150 l0 -60 65 0 65 0 0 60 0 60 -65 0 -65 0 0 -60z"/>
</g>
</svg>
